<svg width="1395" height="820" viewBox="0 0 1395 820" fill="none" xmlns="http://www.w3.org/2000/svg">
<path d="M253.951 781.772C125.107 722.25 47.126 558.152 18.0423 395.541C-11.0415 232.93 8.78084 70.7252 64.3241 -73.8641C119.867 -218.453 211.131 -345.427 332.134 -388.804C453.128 -431.099 602.766 -388.724 747.247 -379.949C891.72 -370.091 1031.03 -392.749 1097.91 -331.577C1165.87 -270.395 1162.5 -125.373 1221.13 12.5862C1279.77 149.463 1401.52 278.203 1399.48 392.928C1398.53 507.661 1273.8 607.295 1143.98 665.754C1015.25 723.139 879.266 738.248 721.42 768.33C563.582 797.33 383.883 841.303 253.951 781.772Z" fill="#950BED" fill-opacity="0.72"/>
</svg>
