<svg width="1440" height="932" viewBox="0 0 1440 932" fill="none" xmlns="http://www.w3.org/2000/svg">
<path d="M706.742 931.065C196.697 931.065 35.2419 793.565 -3.25814 736.065C-28.9999 661 -102.803 -1.38164 -12.8027 -39.3816C77.1973 -77.3816 1405.7 -54.8816 1462.7 -16.8816C1508.3 13.5184 1533.86 461.618 1540.7 670.618C1462.36 754.785 1264.2 931.065 706.742 931.065Z" fill="url(#paint0_radial)"/>
<path d="M298.951 781.772C170.107 722.25 92.126 558.152 63.0423 395.541C33.9585 232.93 53.7808 70.7252 109.324 -73.8641C164.867 -218.453 256.131 -345.427 377.134 -388.804C498.128 -431.099 647.766 -388.724 792.247 -379.949C936.72 -370.091 1076.03 -392.749 1142.91 -331.577C1210.87 -270.395 1207.5 -125.373 1266.13 12.5862C1324.77 149.463 1446.52 278.203 1444.48 392.928C1443.53 507.661 1318.8 607.295 1188.98 665.754C1060.25 723.139 924.266 738.248 766.42 768.33C608.582 797.33 428.883 841.303 298.951 781.772Z" fill="#950BED" fill-opacity="0.72"/>
<defs>
<radialGradient id="paint0_radial" cx="0" cy="0" r="1" gradientUnits="userSpaceOnUse" gradientTransform="translate(747.849 -465.882) rotate(90) scale(1423 2279.09)">
<stop offset="0.0623034" stop-color="#BD58FF"/>
<stop offset="0.571432" stop-color="#8C07E2"/>
</radialGradient>
</defs>
</svg>
