<svg width="60" height="58" viewBox="0 0 60 58" fill="none" xmlns="http://www.w3.org/2000/svg">
<path d="M30.2834 13.9749C21.8488 13.9749 15.0454 20.5415 15.0454 28.6825C15.0454 36.8236 21.8488 43.3902 30.2834 43.3902C38.718 43.3902 45.5214 36.8236 45.5214 28.6825C45.5214 20.5415 38.718 13.9749 30.2834 13.9749ZM30.2834 38.2445C24.8327 38.2445 20.3767 33.9563 20.3767 28.6825C20.3767 23.4088 24.8195 19.1206 30.2834 19.1206C35.7473 19.1206 40.1901 23.4088 40.1901 28.6825C40.1901 33.9563 35.7341 38.2445 30.2834 38.2445ZM49.6989 13.3732C49.6989 15.2805 48.1075 16.8038 46.1447 16.8038C44.1687 16.8038 42.5905 15.2677 42.5905 13.3732C42.5905 11.4788 44.182 9.94273 46.1447 9.94273C48.1075 9.94273 49.6989 11.4788 49.6989 13.3732ZM59.7913 16.855C59.5659 12.2596 58.4784 8.18907 54.9905 4.83536C51.5158 1.48165 47.2985 0.432014 42.5375 0.201607C37.6305 -0.0672022 22.923 -0.0672022 18.0161 0.201607C13.2683 0.419214 9.05096 1.46885 5.56306 4.82256C2.07516 8.17627 1.00094 12.2468 0.762221 16.8422C0.483719 21.5783 0.483719 35.774 0.762221 40.5101C0.987675 45.1055 2.07516 49.176 5.56306 52.5297C9.05096 55.8834 13.255 56.9331 18.0161 57.1635C22.923 57.4323 37.6305 57.4323 42.5375 57.1635C47.2985 56.9459 51.5158 55.8962 54.9905 52.5297C58.4651 49.176 59.5526 45.1055 59.7913 40.5101C60.0698 35.774 60.0698 21.5911 59.7913 16.855ZM53.4521 45.5919C52.4176 48.1008 50.4151 50.0336 47.8025 51.0449C43.8902 52.5425 34.6068 52.1969 30.2834 52.1969C25.96 52.1969 16.6633 52.5297 12.7643 51.0449C10.165 50.0464 8.16241 48.1136 7.11471 45.5919C5.56306 41.8158 5.92113 32.8555 5.92113 28.6825C5.92113 24.5096 5.57632 15.5365 7.11471 11.7732C8.14915 9.2643 10.1517 7.33144 12.7643 6.32021C16.6766 4.82256 25.96 5.16817 30.2834 5.16817C34.6068 5.16817 43.9035 4.83536 47.8025 6.32021C50.4018 7.31864 52.4044 9.2515 53.4521 11.7732C55.0037 15.5493 54.6457 24.5096 54.6457 28.6825C54.6457 32.8555 55.0037 41.8286 53.4521 45.5919Z" fill="#8D08E2"/>
</svg>
