<svg width="75" height="58" viewBox="0 0 75 58" fill="none" xmlns="http://www.w3.org/2000/svg">
<path d="M66.5749 14.2964C66.6214 14.9238 66.6214 15.5514 66.6214 16.1788C66.6214 35.3153 51.5115 57.3651 23.8949 57.3651C15.3868 57.3651 7.48316 54.9897 0.834728 50.8668C2.04357 51.0012 3.20576 51.046 4.46112 51.046C11.4813 51.046 17.9439 48.7604 23.1045 44.8614C16.5026 44.7269 10.97 40.559 9.0638 34.8224C9.99373 34.9568 10.9235 35.0464 11.8999 35.0464C13.2482 35.0464 14.5966 34.8671 15.8518 34.5536C8.97092 33.2089 3.81011 27.3829 3.81011 20.3467V20.1675C5.80921 21.2431 8.13402 21.9153 10.5979 22.0048C6.55309 19.4054 3.90314 14.9687 3.90314 9.94918C3.90314 7.26024 4.64687 4.79534 5.94874 2.64413C13.3411 11.4282 24.4528 17.1646 36.9126 17.7921C36.6802 16.7165 36.5406 15.5962 36.5406 14.4758C36.5406 6.49834 43.2356 2.70803e-05 51.5577 2.70803e-05C55.8814 2.70803e-05 59.7868 1.74787 62.5299 4.57131C65.9237 3.94391 69.1782 2.7338 72.0608 1.07563C70.9448 4.43694 68.5738 7.26038 65.4589 9.05292C68.4809 8.73935 71.41 7.93248 74.1064 6.81218C72.0611 9.68032 69.5039 12.2348 66.5749 14.2964Z" fill="#8D08E2"/>
</svg>
